<svg xmlns="http://www.w3.org/2000/svg" xmlns:xlink="http://www.w3.org/1999/xlink" width="100" zoomAndPan="magnify" viewBox="0 0 75 74.999997" height="100" preserveAspectRatio="xMidYMid meet" version="1.0"><defs><clipPath id="db6e1c1caf"><path d="M 11.34375 11.34375 L 63.84375 11.34375 L 63.84375 63.84375 L 11.34375 63.84375 Z M 11.34375 11.34375 " clip-rule="nonzero"/></clipPath></defs><g clip-path="url(#db6e1c1caf)"><path fill="#000000" d="M 43.652344 11.34375 C 32.53125 11.34375 23.460938 20.414062 23.460938 31.535156 C 23.460938 36.378906 25.242188 40.765625 28.097656 44.25 L 11.4375 60.894531 L 14.277344 63.765625 L 30.9375 47.089844 C 34.421875 49.945312 38.808594 51.726562 43.652344 51.726562 C 54.773438 51.726562 63.84375 42.65625 63.84375 31.535156 C 63.84375 20.414062 54.773438 11.34375 43.652344 11.34375 Z M 43.652344 15.382812 C 52.597656 15.382812 59.804688 22.589844 59.804688 31.535156 C 59.804688 40.480469 52.597656 47.691406 43.652344 47.691406 C 34.707031 47.691406 27.496094 40.480469 27.496094 31.535156 C 27.496094 22.589844 34.707031 15.382812 43.652344 15.382812 Z M 37.59375 23.460938 C 36.472656 23.460938 35.574219 24.359375 35.574219 25.476562 C 35.574219 26.597656 36.472656 27.496094 37.59375 27.496094 C 38.714844 27.496094 39.613281 26.597656 39.613281 25.476562 C 39.613281 24.359375 38.714844 23.460938 37.59375 23.460938 Z M 49.710938 23.460938 C 48.589844 23.460938 47.691406 24.359375 47.691406 25.476562 C 47.691406 26.597656 48.589844 27.496094 49.710938 27.496094 C 50.828125 27.496094 51.726562 26.597656 51.726562 25.476562 C 51.726562 24.359375 50.828125 23.460938 49.710938 23.460938 Z M 43.652344 31.535156 C 39.21875 31.535156 35.574219 35.179688 35.574219 39.613281 L 39.613281 39.613281 C 39.613281 37.355469 41.394531 35.574219 43.652344 35.574219 C 45.90625 35.574219 47.691406 37.355469 47.691406 39.613281 L 51.726562 39.613281 C 51.726562 35.179688 48.085938 31.535156 43.652344 31.535156 Z M 43.652344 31.535156 " fill-opacity="1" fill-rule="nonzero"/></g></svg>