<svg xmlns="http://www.w3.org/2000/svg" xmlns:xlink="http://www.w3.org/1999/xlink" width="5000" zoomAndPan="magnify" viewBox="0 0 3750 3749.999967" height="5000" preserveAspectRatio="xMidYMid meet" version="1.0"><defs><clipPath id="87fb8f0308"><path d="M 2816 2865 L 3174 2865 L 3174 3222.550781 L 2816 3222.550781 Z M 2816 2865 " clip-rule="nonzero"/></clipPath></defs><path fill="#000000" d="M 1591.023438 2532.628906 C 1099.988281 2532.628906 698.234375 2130.851562 698.234375 1639.789062 C 698.234375 1400.347656 791.574219 1177.136719 957.957031 1006.6875 C 1128.398438 840.292969 1351.59375 746.953125 1591.023438 746.953125 C 2082.054688 746.953125 2483.808594 1148.730469 2483.808594 1639.789062 C 2483.808594 2130.851562 2082.054688 2532.628906 1591.023438 2532.628906 Z M 1591.023438 828.117188 C 1375.941406 828.117188 1168.976562 913.34375 1018.828125 1067.5625 C 864.617188 1217.722656 779.398438 1424.695312 779.398438 1639.789062 C 779.398438 2086.210938 1144.628906 2451.460938 1591.023438 2451.460938 C 2037.414062 2451.460938 2402.644531 2086.210938 2402.644531 1639.789062 C 2402.644531 1193.371094 2037.414062 828.117188 1591.023438 828.117188 Z M 1591.023438 828.117188 " fill-opacity="1" fill-rule="nonzero"/><path fill="#000000" d="M 1591.023438 2654.378906 C 1331.304688 2654.378906 1071.582031 2556.980469 872.734375 2358.121094 C 682.003906 2167.375 576.492188 1911.699219 576.492188 1639.789062 C 576.492188 1367.878906 682.003906 1112.203125 872.734375 921.460938 C 1266.371094 527.800781 1911.613281 527.800781 2309.308594 921.460938 C 2702.949219 1315.121094 2702.949219 1960.402344 2309.308594 2358.121094 C 2110.460938 2552.921875 1850.742188 2654.378906 1591.023438 2654.378906 Z M 1591.023438 706.367188 C 1351.59375 706.367188 1112.164062 799.710938 929.550781 978.277344 C 755.050781 1156.84375 657.65625 1392.230469 657.65625 1639.789062 C 657.65625 1887.351562 755.050781 2122.734375 929.550781 2301.300781 C 1294.78125 2666.554688 1887.265625 2666.554688 2248.4375 2301.300781 C 2613.667969 1936.050781 2613.667969 1343.53125 2248.4375 982.335938 C 2069.878906 799.710938 1830.453125 706.367188 1591.023438 706.367188 Z M 1591.023438 706.367188 " fill-opacity="1" fill-rule="nonzero"/><path fill="#000000" d="M 2443.226562 2646.261719 C 2431.054688 2646.261719 2422.9375 2642.203125 2414.820312 2634.085938 L 2191.625 2410.878906 C 2175.390625 2394.644531 2175.390625 2370.292969 2191.625 2354.0625 C 2207.855469 2337.828125 2232.207031 2337.828125 2248.4375 2354.0625 L 2471.632812 2577.269531 C 2487.867188 2593.503906 2487.867188 2617.855469 2471.632812 2634.085938 C 2463.519531 2642.203125 2455.402344 2646.261719 2443.226562 2646.261719 Z M 2443.226562 2646.261719 " fill-opacity="1" fill-rule="nonzero"/><path fill="#000000" d="M 2556.855469 2532.628906 C 2544.679688 2532.628906 2536.5625 2528.570312 2528.449219 2520.453125 L 2305.25 2297.246094 C 2289.019531 2281.011719 2289.019531 2256.660156 2305.25 2240.425781 C 2321.484375 2224.195312 2345.832031 2224.195312 2362.066406 2240.425781 L 2585.261719 2463.636719 C 2601.496094 2479.871094 2601.496094 2504.21875 2585.261719 2520.453125 C 2577.144531 2528.570312 2569.027344 2532.628906 2556.855469 2532.628906 Z M 2556.855469 2532.628906 " fill-opacity="1" fill-rule="nonzero"/><path fill="#000000" d="M 2386.414062 2703.078125 C 2374.238281 2703.078125 2366.125 2699.023438 2358.007812 2690.90625 C 2341.773438 2674.671875 2341.773438 2650.320312 2358.007812 2634.085938 L 2589.320312 2402.761719 C 2605.550781 2386.527344 2629.902344 2386.527344 2646.132812 2402.761719 C 2662.367188 2418.996094 2662.367188 2443.34375 2646.132812 2459.578125 L 2414.820312 2694.964844 C 2406.703125 2703.078125 2394.53125 2703.078125 2386.414062 2703.078125 Z M 2386.414062 2703.078125 " fill-opacity="1" fill-rule="nonzero"/><path fill="#000000" d="M 2857.15625 3173.847656 C 2844.980469 3173.847656 2836.867188 3169.792969 2828.75 3161.675781 L 2358.007812 2694.964844 C 2341.773438 2678.730469 2341.773438 2654.378906 2358.007812 2638.144531 C 2374.238281 2621.914062 2398.589844 2621.914062 2414.820312 2638.144531 L 2885.5625 3108.914062 C 2901.796875 3125.148438 2901.796875 3149.5 2885.5625 3165.734375 C 2877.445312 3169.792969 2865.273438 3173.847656 2857.15625 3173.847656 Z M 2857.15625 3173.847656 " fill-opacity="1" fill-rule="nonzero"/><path fill="#000000" d="M 3084.410156 2946.582031 C 3072.234375 2946.582031 3064.121094 2942.523438 3056.003906 2934.40625 L 2585.261719 2463.636719 C 2569.027344 2447.402344 2569.027344 2423.054688 2585.261719 2406.820312 C 2601.496094 2390.585938 2625.84375 2390.585938 2642.074219 2406.820312 L 3112.816406 2877.589844 C 3129.050781 2893.824219 3129.050781 2918.171875 3112.816406 2934.40625 C 3104.699219 2942.523438 3096.585938 2946.582031 3084.410156 2946.582031 Z M 3084.410156 2946.582031 " fill-opacity="1" fill-rule="nonzero"/><g clip-path="url(#87fb8f0308)"><path fill="#000000" d="M 2970.785156 3222.550781 C 2918.027344 3222.550781 2865.273438 3202.257812 2828.75 3161.675781 C 2812.515625 3145.441406 2812.515625 3121.089844 2828.75 3104.855469 C 2844.980469 3088.625 2869.332031 3088.625 2885.5625 3104.855469 C 2930.203125 3149.5 3011.363281 3149.5 3056.003906 3104.855469 C 3080.351562 3080.507812 3092.527344 3052.097656 3092.527344 3019.632812 C 3092.527344 2987.164062 3080.351562 2954.699219 3056.003906 2934.40625 C 3039.769531 2918.171875 3039.769531 2893.824219 3056.003906 2877.589844 C 3072.238281 2861.355469 3096.585938 2861.355469 3112.816406 2877.589844 C 3149.339844 2914.113281 3173.6875 2966.875 3173.6875 3019.632812 C 3173.6875 3072.390625 3153.398438 3125.148438 3112.816406 3161.675781 C 3076.292969 3202.257812 3023.539062 3222.550781 2970.785156 3222.550781 Z M 2970.785156 3222.550781 " fill-opacity="1" fill-rule="nonzero"/></g><path fill="#000000" d="M 1591.023438 2207.960938 C 1278.546875 2207.960938 1022.886719 1952.285156 1022.886719 1639.789062 C 1022.886719 1327.296875 1278.546875 1071.621094 1591.023438 1071.621094 C 1903.496094 1071.621094 2159.160156 1327.296875 2159.160156 1639.789062 C 2159.160156 1952.285156 1903.496094 2207.960938 1591.023438 2207.960938 Z M 1591.023438 1152.789062 C 1323.1875 1152.789062 1104.046875 1371.9375 1104.046875 1639.789062 C 1104.046875 1907.640625 1323.1875 2126.792969 1591.023438 2126.792969 C 1858.859375 2126.792969 2077.996094 1907.640625 2077.996094 1639.789062 C 2077.996094 1371.9375 1858.859375 1152.789062 1591.023438 1152.789062 Z M 1591.023438 1152.789062 " fill-opacity="1" fill-rule="nonzero"/><path fill="#000000" d="M 1591.023438 1436.871094 C 1522.035156 1436.871094 1469.277344 1384.113281 1469.277344 1315.121094 C 1469.277344 1246.128906 1522.035156 1193.371094 1591.023438 1193.371094 C 1660.011719 1193.371094 1712.765625 1246.128906 1712.765625 1315.121094 C 1712.765625 1384.113281 1660.011719 1436.871094 1591.023438 1436.871094 Z M 1591.023438 1274.539062 C 1566.671875 1274.539062 1550.441406 1290.769531 1550.441406 1315.121094 C 1550.441406 1339.472656 1566.671875 1355.707031 1591.023438 1355.707031 C 1615.371094 1355.707031 1631.605469 1339.472656 1631.605469 1315.121094 C 1631.605469 1290.769531 1615.371094 1274.539062 1591.023438 1274.539062 Z M 1591.023438 1274.539062 " fill-opacity="1" fill-rule="nonzero"/><path fill="#000000" d="M 1591.023438 2086.210938 C 1522.035156 2086.210938 1469.277344 2033.449219 1469.277344 1964.457031 C 1469.277344 1895.464844 1522.035156 1842.707031 1591.023438 1842.707031 C 1660.011719 1842.707031 1712.765625 1895.464844 1712.765625 1964.457031 C 1712.765625 2033.449219 1660.011719 2086.210938 1591.023438 2086.210938 Z M 1591.023438 1923.875 C 1566.671875 1923.875 1550.441406 1940.109375 1550.441406 1964.457031 C 1550.441406 1988.808594 1566.671875 2005.042969 1591.023438 2005.042969 C 1615.371094 2005.042969 1631.605469 1988.808594 1631.605469 1964.457031 C 1631.605469 1940.109375 1615.371094 1923.875 1591.023438 1923.875 Z M 1591.023438 1923.875 " fill-opacity="1" fill-rule="nonzero"/><path fill="#000000" d="M 1311.011719 1599.207031 C 1290.722656 1599.207031 1270.429688 1595.148438 1250.140625 1582.972656 C 1221.734375 1566.738281 1201.441406 1542.390625 1193.328125 1509.921875 C 1185.210938 1477.457031 1189.269531 1444.988281 1205.5 1416.582031 C 1221.734375 1388.171875 1246.082031 1367.878906 1278.546875 1359.761719 C 1311.011719 1351.648438 1343.476562 1355.707031 1371.882812 1371.9375 C 1400.289062 1388.171875 1420.582031 1412.523438 1428.699219 1444.988281 C 1436.8125 1477.457031 1432.753906 1509.921875 1416.523438 1538.332031 C 1400.289062 1566.738281 1375.941406 1587.03125 1343.476562 1595.148438 C 1331.304688 1599.207031 1319.128906 1599.207031 1311.011719 1599.207031 Z M 1311.011719 1436.871094 C 1306.953125 1436.871094 1302.894531 1436.871094 1298.839844 1436.871094 C 1286.664062 1440.929688 1278.546875 1444.988281 1274.488281 1457.164062 C 1270.429688 1465.28125 1266.371094 1477.457031 1270.429688 1489.632812 C 1274.488281 1501.804688 1278.546875 1509.921875 1290.722656 1513.980469 C 1298.839844 1518.039062 1311.011719 1522.097656 1323.1875 1518.039062 C 1335.359375 1513.980469 1343.476562 1509.921875 1347.535156 1497.746094 C 1351.59375 1489.632812 1355.652344 1477.457031 1351.59375 1465.28125 C 1347.535156 1453.105469 1343.476562 1444.988281 1331.304688 1440.929688 C 1323.1875 1436.871094 1315.070312 1436.871094 1311.011719 1436.871094 Z M 1311.011719 1436.871094 " fill-opacity="1" fill-rule="nonzero"/><path fill="#000000" d="M 1871.03125 1923.875 C 1850.742188 1923.875 1830.453125 1919.816406 1810.160156 1907.640625 C 1781.753906 1891.410156 1761.464844 1867.058594 1753.347656 1834.589844 C 1745.230469 1802.125 1749.289062 1769.65625 1765.523438 1741.25 C 1781.753906 1712.839844 1806.101562 1692.550781 1838.566406 1684.433594 C 1871.03125 1676.316406 1903.496094 1680.375 1931.90625 1696.605469 C 1988.71875 1729.074219 2009.007812 1806.183594 1976.542969 1863 C 1956.253906 1903.582031 1915.671875 1923.875 1871.03125 1923.875 Z M 1871.03125 1761.539062 C 1866.976562 1761.539062 1862.917969 1761.539062 1858.859375 1761.539062 C 1846.683594 1765.597656 1838.566406 1769.65625 1834.507812 1781.832031 C 1830.453125 1789.949219 1826.394531 1802.125 1830.453125 1814.300781 C 1834.507812 1826.472656 1838.566406 1834.589844 1850.742188 1838.648438 C 1871.03125 1850.824219 1895.382812 1842.707031 1907.554688 1822.417969 C 1919.730469 1802.125 1911.613281 1777.773438 1891.324219 1765.597656 C 1887.265625 1761.539062 1879.148438 1761.539062 1871.03125 1761.539062 Z M 1871.03125 1761.539062 " fill-opacity="1" fill-rule="nonzero"/><path fill="#000000" d="M 1311.011719 1923.875 C 1298.839844 1923.875 1290.722656 1923.875 1278.546875 1919.816406 C 1246.082031 1911.699219 1221.734375 1891.410156 1205.5 1863 C 1189.269531 1834.589844 1185.210938 1802.125 1193.328125 1769.65625 C 1201.441406 1737.191406 1221.734375 1712.839844 1250.140625 1696.605469 C 1278.546875 1680.375 1311.011719 1676.316406 1343.476562 1684.433594 C 1375.941406 1692.550781 1400.289062 1712.839844 1416.523438 1741.25 C 1432.753906 1769.65625 1436.8125 1802.125 1428.699219 1834.589844 C 1420.582031 1867.058594 1400.289062 1891.410156 1371.882812 1907.640625 C 1351.59375 1919.816406 1331.304688 1923.875 1311.011719 1923.875 Z M 1290.722656 1765.597656 C 1282.605469 1769.65625 1274.488281 1777.773438 1270.429688 1789.949219 C 1266.371094 1802.125 1270.429688 1810.242188 1274.488281 1822.417969 C 1278.546875 1830.53125 1286.664062 1838.648438 1298.839844 1842.707031 C 1311.011719 1846.765625 1319.128906 1842.707031 1331.304688 1838.648438 C 1339.417969 1834.589844 1347.535156 1826.476562 1351.59375 1814.300781 C 1355.652344 1802.125 1351.59375 1794.007812 1347.535156 1781.832031 C 1343.476562 1773.714844 1335.359375 1765.597656 1323.1875 1761.539062 C 1311.011719 1761.539062 1298.835938 1761.539062 1290.722656 1765.597656 Z M 1290.722656 1765.597656 " fill-opacity="1" fill-rule="nonzero"/><path fill="#000000" d="M 1871.03125 1599.207031 C 1858.859375 1599.207031 1850.742188 1599.207031 1838.566406 1595.148438 C 1806.101562 1587.03125 1781.753906 1566.738281 1765.523438 1538.332031 C 1749.289062 1509.921875 1745.230469 1477.457031 1753.347656 1444.988281 C 1761.464844 1412.523438 1781.753906 1388.171875 1810.160156 1371.9375 C 1866.976562 1339.472656 1944.078125 1359.761719 1976.542969 1416.582031 C 2009.007812 1473.398438 1988.71875 1550.507812 1931.90625 1582.972656 C 1915.671875 1595.148438 1895.382812 1599.207031 1871.03125 1599.207031 Z M 1850.742188 1440.929688 C 1842.625 1444.988281 1834.507812 1453.105469 1830.453125 1465.28125 C 1826.394531 1477.457031 1830.453125 1485.574219 1834.507812 1497.746094 C 1838.566406 1505.863281 1846.683594 1513.980469 1858.859375 1518.039062 C 1871.03125 1522.097656 1879.148438 1518.039062 1891.324219 1513.980469 C 1911.613281 1501.804688 1915.671875 1477.457031 1907.554688 1457.164062 C 1895.382812 1436.871094 1871.03125 1432.8125 1850.742188 1440.929688 Z M 1850.742188 1440.929688 " fill-opacity="1" fill-rule="nonzero"/><path fill="#000000" d="M 1591.023438 1680.375 C 1566.671875 1680.375 1550.441406 1664.140625 1550.441406 1639.789062 C 1550.441406 1615.441406 1566.671875 1599.207031 1591.023438 1599.207031 C 1615.371094 1599.207031 1631.605469 1615.441406 1631.605469 1639.789062 C 1631.605469 1664.140625 1615.371094 1680.375 1591.023438 1680.375 Z M 1591.023438 1680.375 " fill-opacity="1" fill-rule="nonzero"/><path fill="#000000" d="M 2118.578125 1964.457031 C 2094.230469 1964.457031 2077.996094 1948.226562 2077.996094 1923.875 L 2077.996094 1639.789062 C 2077.996094 1615.441406 2094.230469 1599.207031 2118.578125 1599.207031 C 2142.925781 1599.207031 2159.160156 1615.441406 2159.160156 1639.789062 L 2159.160156 1923.875 C 2159.160156 1948.226562 2142.925781 1964.457031 2118.578125 1964.457031 Z M 2118.578125 1964.457031 " fill-opacity="1" fill-rule="nonzero"/><path fill="#000000" d="M 2199.742188 2045.625 C 2130.753906 2045.625 2077.996094 1992.867188 2077.996094 1923.875 C 2077.996094 1899.523438 2094.230469 1883.292969 2118.578125 1883.292969 C 2142.925781 1883.292969 2159.160156 1899.523438 2159.160156 1923.875 C 2159.160156 1948.226562 2175.390625 1964.457031 2199.742188 1964.457031 C 2224.089844 1964.457031 2240.320312 1980.691406 2240.320312 2005.042969 C 2240.320312 2029.390625 2224.089844 2045.625 2199.742188 2045.625 Z M 2199.742188 2045.625 " fill-opacity="1" fill-rule="nonzero"/></svg>